<svg xmlns="http://www.w3.org/2000/svg" width="1120" height="600" viewBox="0 0 1120 600"><defs><marker id="arrow" markerWidth="10" markerHeight="10" refX="8" refY="4" orient="auto"><path d="M0,0 L8,4 L0,8" fill="none" stroke="#526176" stroke-width="1.5"/></marker></defs><rect width="100%" height="100%" fill="white"/><g font-family="Helvetica, Arial, Apple SD Gothic Neo, sans-serif"><text x="32" y="51.0" font-size="26" fill="#243247">금액 변동을 원장 항목으로 보존한다</text><text x="40" y="109.0" font-size="21" fill="#243247">LedgerEntry / 금액 변동 원장</text><rect x="40" y="140" width="130" height="55" rx="8" fill="#fff3db" stroke="#243247" stroke-width="2"/><text x="58" y="175.0" font-size="20" fill="#243247">항목</text><rect x="170" y="140" width="260" height="55" rx="8" fill="#fff3db" stroke="#243247" stroke-width="2"/><text x="188" y="175.0" font-size="20" fill="#243247">증감액</text><rect x="430" y="140" width="200" height="55" rx="8" fill="#fff3db" stroke="#243247" stroke-width="2"/><text x="448" y="175.0" font-size="20" fill="#243247">누적액</text><rect x="630" y="140" width="445" height="55" rx="8" fill="#fff3db" stroke="#243247" stroke-width="2"/><text x="648" y="175.0" font-size="20" fill="#243247">근거</text><rect x="40" y="195" width="130" height="55" rx="8" fill="#f7f9fc" stroke="#243247" stroke-width="2"/><text x="58" y="230.0" font-size="20" fill="#243247">L-1</text><rect x="170" y="195" width="260" height="55" rx="8" fill="#f7f9fc" stroke="#243247" stroke-width="2"/><text x="188" y="230.0" font-size="20" fill="#243247">+80,000</text><rect x="430" y="195" width="200" height="55" rx="8" fill="#f7f9fc" stroke="#243247" stroke-width="2"/><text x="448" y="230.0" font-size="20" fill="#243247">80,000</text><rect x="630" y="195" width="445" height="55" rx="8" fill="#f7f9fc" stroke="#243247" stroke-width="2"/><text x="648" y="230.0" font-size="20" fill="#243247">최초 이용료</text><rect x="40" y="250" width="130" height="55" rx="8" fill="#f7f9fc" stroke="#243247" stroke-width="2"/><text x="58" y="285.0" font-size="20" fill="#243247">L-2</text><rect x="170" y="250" width="260" height="55" rx="8" fill="#f7f9fc" stroke="#243247" stroke-width="2"/><text x="188" y="285.0" font-size="20" fill="#243247">−30,000</text><rect x="430" y="250" width="200" height="55" rx="8" fill="#f7f9fc" stroke="#243247" stroke-width="2"/><text x="448" y="285.0" font-size="20" fill="#243247">50,000</text><rect x="630" y="250" width="445" height="55" rx="8" fill="#f7f9fc" stroke="#243247" stroke-width="2"/><text x="648" y="285.0" font-size="20" fill="#243247">이용 시간 정정</text><rect x="40" y="305" width="130" height="55" rx="8" fill="#f7f9fc" stroke="#243247" stroke-width="2"/><text x="58" y="340.0" font-size="20" fill="#243247">L-3</text><rect x="170" y="305" width="260" height="55" rx="8" fill="#f7f9fc" stroke="#243247" stroke-width="2"/><text x="188" y="340.0" font-size="20" fill="#243247">−10,000</text><rect x="430" y="305" width="200" height="55" rx="8" fill="#f7f9fc" stroke="#243247" stroke-width="2"/><text x="448" y="340.0" font-size="20" fill="#243247">40,000</text><rect x="630" y="305" width="445" height="55" rx="8" fill="#f7f9fc" stroke="#243247" stroke-width="2"/><text x="648" y="340.0" font-size="20" fill="#243247">정책 소급 적용</text><rect x="40" y="360" width="130" height="55" rx="8" fill="#f7f9fc" stroke="#243247" stroke-width="2"/><text x="58" y="395.0" font-size="20" fill="#243247">L-4</text><rect x="170" y="360" width="260" height="55" rx="8" fill="#f7f9fc" stroke="#243247" stroke-width="2"/><text x="188" y="395.0" font-size="20" fill="#243247">+8,000</text><rect x="430" y="360" width="200" height="55" rx="8" fill="#f7f9fc" stroke="#243247" stroke-width="2"/><text x="448" y="395.0" font-size="20" fill="#243247">48,000</text><rect x="630" y="360" width="445" height="55" rx="8" fill="#f7f9fc" stroke="#243247" stroke-width="2"/><text x="648" y="395.0" font-size="20" fill="#243247">추가 이용 시간 정정</text><path d="M 555 425 L 555 475" fill="none" stroke="#526176" stroke-width="2.5" marker-end="url(#arrow)"/><rect x="335" y="485" width="440" height="80" rx="8" fill="#e8f5ec" stroke="#243247" stroke-width="2"/><text x="353" y="523.0" font-size="23" fill="#243247">현재 금액 = Σ 증감액 = 48,000</text></g></svg>