<svg xmlns="http://www.w3.org/2000/svg" width="1120" height="470" viewBox="0 0 1120 470"><defs><marker id="arrow" markerWidth="10" markerHeight="10" refX="8" refY="4" orient="auto"><path d="M0,0 L8,4 L0,8" fill="none" stroke="#526176" stroke-width="1.5"/></marker></defs><rect width="100%" height="100%" fill="white"/><g font-family="Helvetica, Arial, Apple SD Gothic Neo, sans-serif"><text x="32" y="51.0" font-size="26" fill="#243247">금액 변동을 합산해 현재 금액을 확인한다</text><rect x="40" y="110" width="1040" height="232" fill="#ffffff" stroke="none" stroke-width="1"/><rect x="40" y="110" width="1040" height="58" fill="#eaf0f7" stroke="none" stroke-width="1"/><rect x="40" y="226" width="1040" height="58" fill="#f7f9fc" stroke="none" stroke-width="1"/><path d="M40,110 L1080,110" fill="none" stroke="#8fa1b6" stroke-width="1.5"/><path d="M40,342 L1080,342" fill="none" stroke="#8fa1b6" stroke-width="1.5"/><path d="M40,110 L40,342" fill="none" stroke="#8fa1b6" stroke-width="1.5"/><path d="M1080,110 L1080,342" fill="none" stroke="#8fa1b6" stroke-width="1.5"/><path d="M40,168 L1080,168" fill="none" stroke="#8fa1b6" stroke-width="1.5"/><path d="M40,226 L1080,226" fill="none" stroke="#d1d9e3" stroke-width="1"/><path d="M40,284 L1080,284" fill="none" stroke="#d1d9e3" stroke-width="1"/><path d="M190,110 L190,342" fill="none" stroke="#d1d9e3" stroke-width="1"/><path d="M460,110 L460,342" fill="none" stroke="#d1d9e3" stroke-width="1"/><path d="M730,110 L730,342" fill="none" stroke="#d1d9e3" stroke-width="1"/><text x="58" y="145.5" font-size="20" fill="#243247">항목</text><text x="442" y="145.5" text-anchor="end" font-size="20" fill="#243247">증감액</text><text x="712" y="145.5" text-anchor="end" font-size="20" fill="#243247">누적액</text><text x="748" y="145.5" font-size="20" fill="#243247">근거</text><text x="58" y="203.5" font-size="20" fill="#243247">L-1</text><text x="442" y="203.5" text-anchor="end" font-size="20" fill="#243247">+80,000원</text><text x="712" y="203.5" text-anchor="end" font-size="20" fill="#243247">80,000원</text><text x="748" y="203.5" font-size="20" fill="#243247">최초 이용료</text><text x="58" y="261.5" font-size="20" fill="#243247">L-2</text><text x="442" y="261.5" text-anchor="end" font-size="20" fill="#243247">−30,000원</text><text x="712" y="261.5" text-anchor="end" font-size="20" fill="#243247">50,000원</text><text x="748" y="261.5" font-size="20" fill="#243247">8시간 → 5시간 정정</text><text x="58" y="319.5" font-size="20" fill="#243247">L-3</text><text x="442" y="319.5" text-anchor="end" font-size="20" fill="#243247">+10,000원</text><text x="712" y="319.5" text-anchor="end" font-size="20" fill="#243247">60,000원</text><text x="748" y="319.5" font-size="20" fill="#243247">5시간 → 6시간 정정</text><path d="M 560 342 L 560 380" fill="none" stroke="#526176" stroke-width="2.5" marker-end="url(#arrow)"/><rect x="285" y="380" width="550" height="70" rx="8" fill="#e8f5ec" stroke="#243247" stroke-width="2"/><text x="303" y="418.0" font-size="23" fill="#243247">현재 금액 = Σ 증감액 = 60,000원</text></g></svg>